<mxfile host="65bd71144e">
    <diagram id="NQbdevP67i4PQxkOO86s" name="Page-1">
        <mxGraphModel dx="724" dy="561" grid="1" gridSize="10" guides="1" tooltips="1" connect="1" arrows="1" fold="1" page="1" pageScale="1" pageWidth="827" pageHeight="1169" math="0" shadow="0">
            <root>
                <mxCell id="0"/>
                <mxCell id="1" parent="0"/>
                <mxCell id="148" value="" style="pointerEvents=1;verticalLabelPosition=bottom;shadow=0;dashed=0;align=center;html=1;verticalAlign=top;shape=mxgraph.electrical.miscellaneous.batteryStack;" parent="1" vertex="1">
                    <mxGeometry x="80" y="60" width="100" height="60" as="geometry"/>
                </mxCell>
                <mxCell id="149" value="&lt;font style=&quot;font-size: 18px&quot;&gt;-&lt;/font&gt;" style="text;html=1;resizable=0;autosize=1;align=center;verticalAlign=middle;points=[];fillColor=none;strokeColor=none;rounded=0;fontFamily=Helvetica;fontSize=11;fontColor=default;" parent="1" vertex="1">
                    <mxGeometry x="60" y="60" width="20" height="20" as="geometry"/>
                </mxCell>
                <mxCell id="150" value="&lt;font style=&quot;font-size: 18px&quot;&gt;+&lt;/font&gt;" style="text;html=1;resizable=0;autosize=1;align=center;verticalAlign=middle;points=[];fillColor=none;strokeColor=none;rounded=0;fontFamily=Helvetica;fontSize=11;fontColor=default;" parent="1" vertex="1">
                    <mxGeometry x="170" y="60" width="30" height="20" as="geometry"/>
                </mxCell>
                <mxCell id="151" value="&lt;font style=&quot;font-size: 18px&quot;&gt;5 V&lt;br&gt;&lt;/font&gt;" style="text;html=1;resizable=0;autosize=1;align=center;verticalAlign=middle;points=[];fillColor=none;strokeColor=none;rounded=0;fontFamily=Helvetica;fontSize=11;fontColor=default;" parent="1" vertex="1">
                    <mxGeometry x="110" y="30" width="40" height="20" as="geometry"/>
                </mxCell>
                <mxCell id="152" value="&lt;font style=&quot;font-size: 18px&quot;&gt;220&amp;nbsp;&lt;/font&gt;&lt;span style=&quot;color: rgb(32 , 33 , 36) ; font-family: &amp;#34;arial&amp;#34; , sans-serif ; font-size: 16px ; text-align: left ; background-color: rgb(255 , 255 , 255)&quot;&gt;Î©&lt;/span&gt;" style="text;html=1;resizable=0;autosize=1;align=center;verticalAlign=middle;points=[];fillColor=none;strokeColor=none;rounded=0;fontFamily=Helvetica;fontSize=11;fontColor=default;" parent="1" vertex="1">
                    <mxGeometry x="205" y="390" width="60" height="20" as="geometry"/>
                </mxCell>
                <mxCell id="154" style="edgeStyle=none;html=1;exitX=0;exitY=0.885;exitDx=0;exitDy=0;exitPerimeter=0;entryX=0;entryY=0.25;entryDx=0;entryDy=0;entryPerimeter=0;endArrow=none;endFill=0;" parent="1" source="155" edge="1">
                    <mxGeometry relative="1" as="geometry">
                        <mxPoint x="344" y="185" as="targetPoint"/>
                    </mxGeometry>
                </mxCell>
                <mxCell id="181" style="edgeStyle=none;html=1;exitX=1;exitY=0.115;exitDx=0;exitDy=0;exitPerimeter=0;endArrow=none;endFill=0;strokeColor=#FF3333;" edge="1" parent="1" source="155">
                    <mxGeometry relative="1" as="geometry">
                        <mxPoint x="190" y="90" as="targetPoint"/>
                    </mxGeometry>
                </mxCell>
                <mxCell id="155" value="" style="pointerEvents=1;verticalLabelPosition=bottom;shadow=0;dashed=0;align=center;html=1;verticalAlign=top;shape=mxgraph.electrical.electro-mechanical.2-way_switch;rotation=-180;" parent="1" vertex="1">
                    <mxGeometry x="242.5" y="139" width="75" height="26" as="geometry"/>
                </mxCell>
                <mxCell id="157" value="&lt;br&gt;" style="verticalLabelPosition=bottom;shadow=0;dashed=0;align=center;html=1;verticalAlign=top;shape=mxgraph.electrical.opto_electronics.led_2;pointerEvents=1;flipH=1;rotation=0;" parent="1" vertex="1">
                    <mxGeometry x="460" y="335" width="100" height="70" as="geometry"/>
                </mxCell>
                <mxCell id="158" value="Output&lt;br style=&quot;font-size: 18px;&quot;&gt;" style="text;html=1;resizable=0;autosize=1;align=center;verticalAlign=middle;points=[];fillColor=none;strokeColor=none;rounded=0;fontSize=18;" parent="1" vertex="1">
                    <mxGeometry x="475" y="310" width="70" height="30" as="geometry"/>
                </mxCell>
                <mxCell id="159" value="Input A" style="text;html=1;resizable=0;autosize=1;align=center;verticalAlign=middle;points=[];fillColor=none;strokeColor=none;rounded=0;fontSize=18;" parent="1" vertex="1">
                    <mxGeometry x="230" y="109" width="70" height="30" as="geometry"/>
                </mxCell>
                <mxCell id="160" value="Emmanuel&amp;nbsp;&lt;br&gt;TEJ3M&lt;br&gt;Unit #4-14" style="text;html=1;resizable=0;autosize=1;align=center;verticalAlign=middle;points=[];fillColor=none;strokeColor=none;rounded=0;fontSize=18;" parent="1" vertex="1">
                    <mxGeometry x="95" y="440" width="110" height="70" as="geometry"/>
                </mxCell>
                <mxCell id="161" style="edgeStyle=orthogonalEdgeStyle;rounded=0;orthogonalLoop=1;jettySize=auto;html=1;exitX=1;exitY=0.115;exitDx=0;exitDy=0;exitPerimeter=0;endArrow=none;endFill=0;fillColor=#f8cecc;strokeColor=#b85450;" parent="1" source="165" edge="1">
                    <mxGeometry relative="1" as="geometry">
                        <mxPoint x="192" y="90" as="targetPoint"/>
                        <Array as="points">
                            <mxPoint x="175" y="275"/>
                            <mxPoint x="175" y="90"/>
                        </Array>
                    </mxGeometry>
                </mxCell>
                <mxCell id="162" style="edgeStyle=orthogonalEdgeStyle;rounded=0;orthogonalLoop=1;jettySize=auto;html=1;exitX=1;exitY=0.885;exitDx=0;exitDy=0;exitPerimeter=0;endArrow=none;endFill=0;entryX=1;entryY=0.885;entryDx=0;entryDy=0;entryPerimeter=0;" parent="1" source="165" target="155" edge="1">
                    <mxGeometry relative="1" as="geometry">
                        <mxPoint x="210" y="213" as="targetPoint"/>
                    </mxGeometry>
                </mxCell>
                <mxCell id="163" style="edgeStyle=orthogonalEdgeStyle;rounded=0;orthogonalLoop=1;jettySize=auto;html=1;exitX=1;exitY=0.885;exitDx=0;exitDy=0;exitPerimeter=0;endArrow=none;endFill=0;entryX=0;entryY=0.5;entryDx=0;entryDy=0;entryPerimeter=0;" parent="1" source="165" target="168" edge="1">
                    <mxGeometry relative="1" as="geometry">
                        <mxPoint x="180" y="375" as="targetPoint"/>
                        <Array as="points">
                            <mxPoint x="180" y="255"/>
                            <mxPoint x="180" y="375"/>
                        </Array>
                    </mxGeometry>
                </mxCell>
                <mxCell id="164" style="edgeStyle=none;html=1;exitX=0;exitY=0.885;exitDx=0;exitDy=0;exitPerimeter=0;entryX=0;entryY=0.75;entryDx=0;entryDy=0;entryPerimeter=0;endArrow=none;endFill=0;" parent="1" source="165" edge="1">
                    <mxGeometry relative="1" as="geometry">
                        <mxPoint x="344" y="215" as="targetPoint"/>
                    </mxGeometry>
                </mxCell>
                <mxCell id="165" value="" style="pointerEvents=1;verticalLabelPosition=bottom;shadow=0;dashed=0;align=center;html=1;verticalAlign=top;shape=mxgraph.electrical.electro-mechanical.2-way_switch;rotation=-180;" parent="1" vertex="1">
                    <mxGeometry x="242.5" y="252" width="75" height="26" as="geometry"/>
                </mxCell>
                <mxCell id="166" style="edgeStyle=orthogonalEdgeStyle;rounded=0;orthogonalLoop=1;jettySize=auto;html=1;entryX=0;entryY=0.5;entryDx=0;entryDy=0;endArrow=none;endFill=0;" parent="1" source="168" target="148" edge="1">
                    <mxGeometry relative="1" as="geometry"/>
                </mxCell>
                <mxCell id="167" style="edgeStyle=none;html=1;exitX=1;exitY=0.5;exitDx=0;exitDy=0;exitPerimeter=0;entryX=1;entryY=0.57;entryDx=0;entryDy=0;entryPerimeter=0;endArrow=none;endFill=0;" parent="1" source="168" target="157" edge="1">
                    <mxGeometry relative="1" as="geometry"/>
                </mxCell>
                <mxCell id="168" value="" style="pointerEvents=1;verticalLabelPosition=bottom;shadow=0;dashed=0;align=center;html=1;verticalAlign=top;shape=mxgraph.electrical.resistors.resistor_2;" parent="1" vertex="1">
                    <mxGeometry x="185" y="365" width="100" height="20" as="geometry"/>
                </mxCell>
                <mxCell id="169" value="Input B" style="text;html=1;resizable=0;autosize=1;align=center;verticalAlign=middle;points=[];fillColor=none;strokeColor=none;rounded=0;fontSize=18;" parent="1" vertex="1">
                    <mxGeometry x="195" y="280" width="70" height="30" as="geometry"/>
                </mxCell>
                <mxCell id="170" style="edgeStyle=none;html=1;exitX=1;exitY=0.5;exitDx=0;exitDy=0;exitPerimeter=0;entryX=0;entryY=0.5;entryDx=0;entryDy=0;entryPerimeter=0;endArrow=none;endFill=0;" parent="1" target="173" edge="1">
                    <mxGeometry relative="1" as="geometry">
                        <mxPoint x="444" y="200" as="sourcePoint"/>
                    </mxGeometry>
                </mxCell>
                <mxCell id="172" style="edgeStyle=none;html=1;exitX=1;exitY=0.5;exitDx=0;exitDy=0;exitPerimeter=0;entryX=0;entryY=0.57;entryDx=0;entryDy=0;entryPerimeter=0;endArrow=none;endFill=0;" parent="1" source="173" target="157" edge="1">
                    <mxGeometry relative="1" as="geometry"/>
                </mxCell>
                <mxCell id="173" value="" style="verticalLabelPosition=bottom;shadow=0;dashed=0;align=center;html=1;verticalAlign=top;shape=mxgraph.electrical.logic_gates.inverter_2" parent="1" vertex="1">
                    <mxGeometry x="460" y="170" width="100" height="60" as="geometry"/>
                </mxCell>
                <mxCell id="175" value="&lt;font style=&quot;font-size: 23px&quot;&gt;NOR GATE&lt;/font&gt;" style="text;html=1;resizable=0;autosize=1;align=center;verticalAlign=middle;points=[];fillColor=none;strokeColor=none;rounded=0;" parent="1" vertex="1">
                    <mxGeometry x="240" y="470" width="130" height="20" as="geometry"/>
                </mxCell>
                <UserObject label="" link="https://raw.githubusercontent.com/Emmanuel-Garcia-Maltes/Unit-4/main/Unit%204-09/Sketch.png" id="179">
                    <mxCell style="verticalLabelPosition=bottom;shadow=0;dashed=0;align=center;html=1;verticalAlign=top;shape=mxgraph.electrical.logic_gates.logic_gate;operation=or;" vertex="1" parent="1">
                        <mxGeometry x="344" y="170" width="100" height="60" as="geometry"/>
                    </mxCell>
                </UserObject>
                <mxCell id="182" value="" style="shape=image;verticalLabelPosition=bottom;labelBackgroundColor=#ffffff;verticalAlign=top;aspect=fixed;imageAspect=0;image=data:image/png,iVBORw0KGgoAAAANSUhEUgAAAOgAAADLCAIAAADr80i3AAAgAElEQVR4nO2deXAb133H3x647/skCQK8SZG6KB4iJUuWTUuyLFlKo0a1bFluOlOncTydxmmjuJlJM+1MmknrxNPYnTYZ23ISyZFExzKtOzooihQlUiLFmxRIECQIEDewuHfRP16L4VBHJJ4Au5+/uODi4e3b7773e2/f7/dDkskkoKHJNNDlrgANzVyghUuTkdDCpclIaOHSZCS0cGkyElq4NBkJLVyajARfkFK+8Y1vLEg5NDQP5c0336yvr5/5CbIgLyAQBNm9e3deXt78i6KhmUk0Gv3000/fe++9gwcPzvx8YXpcAMChQ4f27NmzUKXR0ED8fv/58+cf/Jy2cWkyElq4NBkJLVyajIQWLk1GQguXJiOhhUuTkdDCpclIaOHSZCQL9gLiT+J2uy0Wi9frLSsrk0gkGIZRFEUQxP3798VisVarZTAYAAC/39/f3z88PAy/VVBQYDQapVIpPJyYmBgZGbFaralimUymXC6vqKgQCAQ4PvtykslkLBbr7++3WCyBQAAAgKJoeXl5dnY2n89/TG39fv/4+DiXy1WpVFwud/6XT1HU5OSk1+tVq9UMBmN8fJzD4WRlZSEI0t/fz+fzFQrFo6pEEITZbO7q6nrwX+Xl5bm5uTweb/41nIXL5XI4HBwOR6PRsFisBy8nGAz29fXp9Xq5XP7gCYvN0gl3dHT0d7/7XVtb2w9/+MPKykqBQJBIJKampo4fP15aWrpr1y4cxwmC6Onp+c1vftPU1ISiaDKZfOmll3bv3r127VqBQAAA6Ozs/Pjjj69cuSIUCmGxXC63oKDg29/+dkVFhVAoRBAk9YvJZDIUCo2NjR0/fvzq1atTU1PJZBJF0YMHD+7Zs6eoqAg+Kg9lYmLiD3/4g06ne/bZZxdEuCRJ9vX1DQwM1NbWcjicxsZGtVq9b98+FEVPnjyZm5u7cePGRwnX6/VeuXLl3//93wEAgUAgHo8zGAzYIG+//bZYLF4M4U5OTra2tqpUKrFY/KAuE4mEzWb7r//6r927d9fU1Kxk4QIACIJoa2u7ceNGVlYWbPeZRCKRy5cvnzlzpri4+Lvf/a5AIIhGo6dOnTp79uzk5GRqH09JScnGjRtfeeUVFEUBAOPj483NzY2NjVKptKioaGanG4lEOjo63n///by8vJ/+9KcFBQWJRMLtdv/bv/1bS0sLn8/Pzc1dsmtnMBjPPPNMfX09giATExNP9V2NRvPGG28cOHAAAHDy5MmRkRGTybR3714AAIfDYTKZi1Hh4uLi/Px8FEUf83gvI0sqXJFI9NJLLw0MDNy5c0cmk83sYBKJhM/na21tXb16dU1NjVarxXGcoqht27ZduXJlaGhoYmJCqVQCADAM43K5EokECpeiqLy8vNu3bxMEkUgkZgp3cnJyZGREIpHs3LmzuLhYKBQmk0k+n19VVeX3+y0Wi8FgiMfjp06dunTp0tjYGI/H27hx48svvxyPx5uamn7961+z2Wyfz/fiiy+y2ewzZ858+eWXwWCwsrLy5ZdfXrt2beqHwuGw2Wxub29ftWpVaWmp1+s9efKkXq8vLy9XKpUWi+Wrr77atGkT/NHc3NyzZ8+eP3+ez+eHQqF9+/aRJOl0OhsbG3t7eycmJg4ePPjMM8/odLpU+SiKstlsNpsNAODxeBwOh8fjSSQSAIDL5bpw4UJLSwsAAEGQnTt3GgyGu3fvvvfee/C7lZWVhw4dys3NtVgs7e3tw8PD8HmWyWQNDQ3PPfecVCq12+2fffZZa2trKBTKycl5/fXXCwoKrFbr3bt3ZTJZZWVlf3//V199BX8FfgtBkGPHjl28eHFyctLtdu/YsYPP5585c6apqclisWRnZ7/yyivr16+PRCJtbW3Xrl2D1WtoaNiwYQO8kHmypMLl8XjV1dUej2d6enp4eHj16tWpf4XDYZvN5vP5TCZTTk4O1B+Konq9XqlUDg0NDQ0NiUSiB8uMx+OhUAjDMAzDZtoJJElOTExMTk4WFRUVFBTAhwRBEDabXV9f73a7pVJpIBC4efPm8PCwSqXSarXBYBCKLysrS61WGwwGoVCo0+mCwWB/f39fX19JSUkkEvF6vWfOnFEoFNBahcXiOG42m1UqVV5eXiAQ6OvrC4VCWVlZIpHI4XDYbLZYLOZ0Os1ms1qt1uv1Go1GIpHAK0UQxG63S6XSkpISDMOuXbsmFouFQuGDg9KDRKPRkZGRe/fubdy4UaPRMJnMnp6etra2oqIisVhst9u9Xm9bW5tWq/X7/Tdu3BgeHt6yZcv69euHhoZ6e3uzsrIqKiquXbsWCoUKCgowDEskEj09PRKJxOfzmc3mWCxmsVj6+vrC4XB1dTUAwO12j4+P6/X67OxspVJpMpk0Gk00Gh0aGoImXHl5eSQSOXHihEAgEAgE0Dqvq6vTaDRyuRx2N/NnSYXLYDCUSmVRUdHQ0FB3d3dubm5qU2UsFvN6vTiO8/n8mQYTg8Hg8XhMJtNms8XjcQCA1+u12+1ffPEFlKnP57PZbCUlJVKpdGZ3S5Kkx+MJhULl5eUcDgdFUY/HMzY2ZrFYAABwPhGLxdxud15e3tq1a3NyckZGRv7pn/7J6XQWFxevXbvWYrHodLrKysrJycmenh6hUPjNb34Tw7AvvviipaVlaGhIIpFA4cLrYjAYoVDI5/PFYjGpVBqLxcLhsN/vn56eNhqNMplsamoKRVGBQLBp0yan06lWqzdt2oSiKIqiJEkWFBRs3bp1dHT0X//1X8fHx4PB4JMIFwBAUZRQKNy2bRt8rtrb2xUKxTe/+U2FQtHb29vc3Dw4OBiLxZLJZDAYZLFYDQ0NBoPh2LFjo6OjY2NjhYWFnZ2dq1atqq2tVSqVZrN5aGho5mZXu93udDrz8/O/8Y1vYBh24cIFkUikUCjq6+vb2tqef/75tWvXEgTR2dkZi8UOHDhQWFh49+7dn//8511dXcXFxRRF8Xi8bdu2FRcXL6AtvqTChRQVFY2NjQ0PD/f09KhUqsefDKWcmooBAMbGxs6fP3/ixIlkMhmJRORy+XPPPffuu+8qFAoMw2Z9ncFgSKVS+LnZbP70009/85vfxOPxdevW/cVf/MXXv/71vXv3BoPBWCw2PT1NEASPx5u1NBGPx6empux2e2FhYTAY5PF4SqVSr9enHiTwfx05k8n0er2Tk5M4jpeWlloslmAwODk5OTw8XFVVNfMSHkSv12dlZfF4PL1er9frn+oGs9lsiUQiEokwDJNIJFu2bKmurg6FQm63OxqNzmyTrKwsvV6v1Wo5HI7BYCAIAkEQFEV5PB58zrlcrlarLSwsxDBseno61YZMJjMejzscDhaLtWnTJjabTVGUz+eDJySTyXA47Ha7N2zYkJWVJZfL8/LyqqqqLBaLWq1ms9lSqVQkEj245jMflkG4fD5/8+bNbW1tV65c2bFjB0VRT/X14uLiDRs27N+/P5FINDU1jY6OVlVVzepuU0SjUbvdnkgkAABlZWVHjhx56623+vr62tvbAQCxWGxycvInP/lJa2ur2+1OJBKBQGCmAZNiaGjo17/+NYfDQRAkFospFIpXX30VFgsAQFGUxWIVFRX5fL7R0VEmk6lQKLxebyQSicVi0Wj0oUt1MxGLxQ81hJ4EFoslEonEYjHUaF9f329/+9tPP/0UAJBIJPR6/Y4dO+CZQqEQx/GZAxqKoiKR6NVXX/3oo48+/PBDv9+/YcOGv/u7vzMajalz8vPzoUX74x//GEGQt956a/fu3Tk5OakTSJIkCMLpdGq12lSVtFrt1NQUAIDJZAqFwlT1FoplEC6CIHq93mq1dnZ2trS0eL1eAACHw1GpVLFYDI7vqbsYiUScTqff7zeZTLDFmUymRCLJysoCAGzZsuXSpUuXL18uLCzMz8+fuW6F47hKpZJIJL29vbW1tVwul8lkSqVSsVjs8Xg4HA5FUdPT059//rlWq33zzTclEonL5Tp9+vRDBWQwGKqrqw0GA7QNeDxebm7uzE4UQZDc3Ny+vr7p6Wkul5ubmysWi/1+P+zVFArF4xeMoMEw5yZNfd1ms3V1dfl8vh/96Ec8Hm96enrmmjeCILNmAgAADMM0Gs2+ffuqqqo8Hk8gELh48WIikSBJEp7AZDJLS0tff/31zZs3x+Nxs9nc3d098zmEc0ehUJi6hHg87nK5UiXM8+oefskLW9wTwuPxDAZDXl5eW1ub3W4nSZLFYqlUquzs7Hv37t27dy8WiwEAEolEV1fXyMiIQCAwGo2z1n1QFDUYDMXFxTiOt7S0OJ3OmZ03nNhlZWUNDQ3dvHnT6XQCACiKCoVCHR0ddrsd/j08PKxUKjdv3rx9+/by8nKCIFLNDcEwDL4f0Wg0DQ0NL774YlFREUmSDw4UCoWCJEmr1Wqz2QQCgV6vj0ajTqdToVDArm6xWnMGwWDQ5XIhCLJr166XXnqprKzs8YYySZJ+v//y5cs4jtfV1b3wwgv5+flOp5MgiNQ59+/fHxkZEQqFe/fu3bNnD5fLJQgC3iAIiqIcDkcmk42MjLhcrkAgMDEx0d3dLZVKH/+WZz4sQ48LAMAwTK/Xb9y48fr165FIJB6PQ33U1tb+8Y9/bGlpgfZWPB7v6ekhSbKiokIulz9YDp/PLy0t9Xg858+fLy4uhpPx1H8VCkVRUdGdO3c6OjrC4bBcLidJMhAI3LlzRyQSQVNPpVJZrdbW1latVmuxWOx2ezAYTCQScJlicHCwoKBAKpVmZWXdvn1bIBAwGIyenp6pqandu3dnZWXN7Ef5fD60/BAEEQqFTCazt7c3EomYTCY2mz2zn2MwGMlk0uFwmM3mnJycBYw7yGazeTxeNBqFSxMDAwNwBHiUPQbf0bS1tfX39+v1eg6H43Q6s7OzZTKZx+OB5zgcjtHR0WQyWVRUFI/Hk8mkXC4XCoUEQWAYBhe/ZDKZ0Wjs6uqCc8Hx8XGCIIqKiqRS6cjIyEJd3UyWTrgYhjEYDAaDAW8hfOO1f//+8+fPww9ZLFZ9fb1SqXz//fd/9KMfwW/91V/91cGDB1N2J4ZhTCZz5pK4TCYrKys7depUV1eXSqWaKVwWi7V69eqioqKPPvroZz/7WU9PDwCAwWAcOXLk5ZdfNhqNBEE0NDS89dZb77333qpVq3bv3v3aa6/x+fxwOAyXcn7+859TFHXgwIGqqqqBgYHvfOc7Xq+3urr69ddf37Jly6wL5PF4CoUC3kWRSMRiseCSiMlkwnGcJEkcx5lMJo7jcFRtb2/3eDzf/va3cRzHcRwOprAdGAzGo8bWVCHwEEEQOHmCrapWq41G46VLlw4ePAhfUphMJqvVGo1GAQCw6eCZ8Haw2Wy5XL5z584jR45cu3ZNIpHU1ta+++67WVlZfr8fnr927Vqfz/fJJ5/8/d//PQDgnXfeMRqNSqVyampKKpV+8cUXoVDowIEDW7dutVqtv/rVr/r7+4uKiv7hH/5h3bp1oVCIwWCwWKxZ9sn8WTAv31OnTj3eWTISiRAEAVcJoJ0O33cHg0Eul5uykKLRqNvtTj3u0CpNLVkHg8FwOIzjOFx+B/+3G8HhcHC53FlLaakTPB6Px+OBNw9anLBHpCgqEonYbLZoNMpms+GoymAw4PJZIBCYnp6G0yYURb1er8fjIUmSy+WKxWKxWPzgNaaqJxaLk8mk3++Px+MikQg+acFgMBKJ8Pl8BoPh8XjC4TCTyZTJZF6vl8lkcjgcBoNBUZTL5WKxWA+ub0DgchuTyYS2eCKRCAaD8XhcKpXCBoTrCYFAAM6KcByPx+MymSyRSIRCIQRBxGIxgiAEQUSjURzHBQJBJBJxOBywB+VyuUqlkslkRiKRUCiE4ziPxyMIwuv1Qvsh1XrwNWQ4HObz+WKxONVE0WiUxWLBrRdwO0o0GpXJZCiKzkG+cL545MiRWV6+SydcGpo58Cjh0tsaaTISWrg0GQktXJqMhBYuTUZCC5cmI6GFS5OR0MKlyUho4dJkJLRwaTISWrg0GQktXJqMhBYuTUZCC5cmI6GFS5OR0MKlyUho4dJkJLRwaTISWrg0GQktXJqMhBYuTUZCC5cmI6GFS5OR0MKlyUgWMpJNPB63WCzNzc319fVarXZBAk9D3G53a2urWCzOz89XKBQPPaetrc1qtcrl8traWhgtedYJZrN5dHQ0JydHr9fPDEPmdrs7OzuTySTMzrCAMVf6+/thlUpLS1PRdyiKcrvd586du3v3bipSp1arrampqaur43A4swppbW3FMAzGmn7MbyWTSbfbffHixY6ODhhHsL6+vq6ubmZYxQchSdLr9Z47d664uNhkMj1hRN6ZeDye7u5ugiA2b968sK33eBayx4XJSC5fvjw1NTUzKNr8IQiio6NjYGAgdadnQlGU3+/v7Oy8du3a3bt3A4HAQ6Oc2O32e/fu2e32VFxbSDAY7Orq6u7uXtg6AwAmJia6urpGR0dnBtKDEW7a2tqgwhKJRCKRMJvN8AIfLGRwcHB4ePihF54iFovZbLYzZ8709vbC2GeJRKK/v7+trW1wcHBWGL+ZwGBqzc3NZrM5EonM4RoJgujt7e3s7IxGowsYBO1Pslixw5LJZCAQCAQCGIbB0LMcDkcqlUql0ng8DuMIoSjqcrlwHIdxlnAcj0QigUCAxWLBEGCBQCAWiyEI4na77XZ7Mpmcnp7WarWz0uDE4/HR0VH4WyRJWiwWgUAwt7iWyWTS5XIlEol4PA77LbFYLJVK2Wx2OByGCafC4XAkEuHxeCqVisViRSKRYDAI0+CgKBoKhQKBAMwp5HQ6bTYbi8XyeDxyuXxmyDMOh7Nt27YDBw7AeKnnzp3r6Ohoa2srLy9/2prDJ+HmzZtfffXViy+++Nxzz8lkMgDAiRMnOjs7vV6vSqUSCAQulwvDMB6Px2KxSJKEhwiCOBwOj8djs9mcTiebzYbtTxAEjNcEv5tMJuEnMHo2TF8QiUSkUqnL5XI6nW63e2JiAiaqWJpOd7GEm0gkOjo6zpw5I5FI/vu//3tqamrt2rVvvPHGoUOHpqamPv/8cxg89Be/+IVGozl8+PCBAwfkcnlvb++FCxcKCwthLOKrV6/ev38fwzCXy/XBBx8gCDI5OXn48OHKysqZvxWNRgcHBzUajVqtDofDzc3NeXl5c8gVk0wmo9Ho0aNHp6enx8fHP/vsMwDAn//5nx8+fHjVqlV37tw5e/YsSZJ3797t7u6uqan5x3/8x6Kior6+vsuXL2u12ueee04oFHZ2dn711VcvvPCCy+X63e9+d/r0aYVCgeP4rl27UnGPH8RgMFit1qmpKRh466m0S5Lk1NTUH//4x69//euVlZWpnHDbt28nCMJut9+/f7+goODo0aMikaiuri4vL8/v9//qV7+SSCQ6ne7UqVNNTU3t7e1TU1MbN25samoqKChobW1taWlhs9nvvvvu888/n0gkrly5cuvWrb/927+VyWQ2m+3GjRs9PT2vvfbab3/728bGRr/f73A4fvjDH+bk5CxSFqBZLGKPS5JkOBwmSfKnP/1pOBy+e/duc3Pzli1bEokEDDhcW1t78uTJgYEBt9t97dq1HTt2kCQJQwonk0kEQSiKIkkyOzu7srLSYrEoFIqGhoaioqKZPwTDqg0PD69Zs0an001MTDQ3N/t8PjabPYeQtLDaXq+3uLj45MmT0GTv7OxUqVSRSOTMmTP19fUwE8SNGzeuX7/O4XCSyWSqzrA+iUSCoqg1a9b4/X6dTpednd3Q0AB7wUdhsVhg+hAmk/m0PS5BENPT04FAQKfTzcz0xmazxWLx+Ph4T09PXl4etB9SozkMp24wGF599VWfz1ddXb1lyxaYnaCtra2+vn7//v1jY2NNTU05OTlKpZIkSRhjFEKSJEmSfD5/9+7dOI57PJ7XXnstlWVxCVjcMKNMJlOv19fU1KAomkgkrl69Gg6H4QglkUgqKirq6up0Ot25c+fGxsa8Xu9Dw7hyuVyNRmMwGHQ6nV6vnzWBgNEdg8EgjGIbi8UYDIbdbheJRHOOKiwSiQoLC7ds2TI5OQltxGg0iiAIn88vKCiorq6Gs5DW1labzfaoDkYsFut0OqPRaDQa1Wr1rDCSkUikubn5/v370ChKJpOFhYUVFRVziDdPkmQsFiNJctaziqKoWCzmcrl+v/9R1iePx+Pz+SqVymQyabVap9OJoqhWq62oqCgtLR0ZGenu7rZarQ+9RphrCN4ULpebn5+fqZOzB+FwOAUFBbB1YAYL+DmXy9XpdDBJhlqthiFpg8HgHKx7giBGR0cHBgauXr3a1NR05coVs9nc398P7dG5IZfL4cqDRCKRyWRwpo/jeH5+fmFhoUwm43K5eXl50OqdNdV7QiiKCgQCNpttfHx8fHwcJhFxuVwLO8XhcDgPLlM8HhRFy8rKNBoNn8+Xy+U6nS4QCITD4YWq0kKxuD0ujuNyuRzH8Vk3A4YXhg8otAceerfgmPuY8uFc6u7du7du3Wpvb4dZVGFY94qKCqVSObeEGTwe78EkOQiCiEQiDocDk4FRFPVg3ZLJJDQV/qT4uFzu9u3bU5Mzs9nc1NT0ySefGI3GVBaqJwRFUQzD4Jg2s0rJZBIO7rMmTKmB/qGVhJcJx4dH3ZqHZhJYYpbnBUQkEvH5fHAIIwjC5/OFQqFZ51AUZbfbH/+sh8Ph4eHhgYGBn/3sZxcvXmxra2tubv7oo49gN/z4JaSnhaIoh8Ph9/uhsej1ev1+/6wVtHg8DhObPW2vKZPJYGYlr9f7mNWrhwIjoXO5XJvNFgwGU5/HYrHR0VGCIEpLS2fazXD10O/3w0jXs4Ax/kOhEEmSoVDI4XCkkgulCAQCqcjby8XyCDcUCtlsNrPZTFEUDPSuVCph0Gqr1To2NuZyubxeb39/P1yTehQej8fhcAAASkpKdDqdQqFQqVQajYbD4dhstlSmrgUBZlIZGhryer3BYLC7uxuuY7BYrHA43NPT4/f7XS7X4ODgvXv3nrZD8vl8LpcrFosJBIKnHSVwHFer1XV1dY2NjaksRgCAS5cuDQ0N8fl8o9EIe1ybzTY2NhaPx4eHh6emph7aKVAUNTg4CGd7drvdZrOp1WqRSEQQBLRqCIKwWq0wz+EysjzJS9hsdjQavXHjxtWrVyORiEajWbt2rUgk0uv1Op2up6fnF7/4RXZ2NoZhcMyCeRMuX74ME7yk8tzabDaPx5OVlQWjv4P/y/RrMBjMZjOc0i1UYm8UReVy+cjIyMcffxwKhWKxGEwglUgkTCbTl19++R//8R86nQ6uNEOhcDgcn8/3hz/8QaVSlZaWzjQ/4OQdTiIBAIlEgsVi1dTUwDx7T1UxGB2/qqrK5XJ1d3d3dXXBxwZBkJycnIqKChj1v6ys7Nq1aydOnLh58yZMTQpTM8AcDTdv3oQXCCvT2NgIB5bKysrCwkK5XJ6dnS2Xyz/44AOY9ixlzMBCxsbGTp8+vX37dolEsrD5zB7FQgoXZjYsLy+XSCQwSV1BQUHqSlQqVUlJCZ/Pj8ViPB5PLBZTFNXR0ZGbm1tcXLxu3ToWi6XT6TZv3hwKhcxmM5vNrqqqQhBELpdzudySkpKOjg6fzzdzNEQQRKPRFBYW8vn8VPIPHo+3fv369vZ2BEGeZNhls9kwOSuDwcAwLDc3l8PhwBUJBoMBX4Sy2WwMw0pKSng8ntVq9Xq9dXV11dXVSqUykUhUVVUNDg729/ezWCyTyVRUVATXbmGK4MHBQbfbPTMNJZzbuVyu1KsyuVy+efPmbdu2zXq38oSwWKzc3Nw/+7M/a2xsvH79usvlAgBs375948aN+fn58Jz169c7nc5Lly7du3dv9+7dVVVVJpMJppstLy8fGBjweDxwNU2v18OX1dnZ2Xv27MnJyeFwOGVlZV6v9+jRowiCrFmzxmg0hkIhJpOJYVh2drbVap2YmFjKl2fLkAPCYrGcPHmSoqjDhw+LRKIlW0BpbW1tb29fv359eXn50yaV9Xg8nZ2dTU1Ne/furaysXLLVSgDAxx9/DFPfFBYWLuoPJRKJvr6+Dz/8cMeOHevXr4e56pcdOgcEzYpiGWxcuVy+Y8eOZDLJ5XKXrLsFAOTn58tkMqlUOgerl8fjlZWVyWQynU63NDZcCphhPZUea/GAg/7hw4c1Gs2cEwsvGcsgXJiab+l/VyaTPf6962NgMplKpXJZRk+DwbA0PwRXcNeuXbs0PzdPaFOBJiOhhUuTkdDCpclIaOHSZCS0cGkyElq4NBkJLVyajIQWLk1GspAvIO7fv3/jxo329nYAQEVFhVar9Xg8ra2tAICysrKsrCy/39/S0pJMJouLiw0GA0EQLS0tiUSioKDAZDJFIpGWlpZoNGoymQoKCuLxeEtLSygUMhgMxcXFFEW1tLQEAoGsrKyysjIAwI0bN7xeL/QzAQDcvHnT5XKpVCq4hH779m2HwyGXy6Fn5Z07d2w2m0Qiqa6uBgBAjxShUFhbW4sgSG9v79jYGI/HgzEZBgYG7t+/z2aza2trWSzW8PDw0NAQg8Gora3lcrnQwwJF0draWoFAYLFYenp6AAA1NTVisRi6pAMANmzYIJPJpqamOjs7AQDr1q1TKpXT09O3bt0CAKxevVqj0bjd7ra2NgDAqlWr9Hq9z+draWkBAJSUlOTk5ASDwZaWFpIkCwsLjUZjOBxuaWmJxWJ5eXn5+fmxWKylpSUcDufm5hYVFZEk2dLSEgwGs7OzS0tLAQAtLS0+n0+n05WXlwMA2tra3G63Wq1es2YNAODWrVvT09MKhWL9+vUAgM7OzqmpKalUWlVVBQDo6uqamJgQiUS1tbUAgJ6eHovFwufzN27ciKJof3+/2WzmcDjV1dXQt95qtbLZ7IaGBoIghoaGxsbGcBxvaGiIxWLDw8NmsxkA0NDQAAAYGRkZHh4GADz//PPr1q1TqVRzE9sCBxW1WD8AAA+FSURBVAQJBoNOpxMAEAgEQqFQ6tDv96cOoTt1KBQiCMLlcsXjcZVKFQqFwuGwy+WKRCJyuTwUCsXjcZfLRRCERCIJhUIwjobP5xMIBHDXudvtdrvdXC4XHno8HqfTyWQyZx5iGDbzEAAAD71er9PpTCQS0AkbHkaj0VAohOO4z+dzOp0cDgfup4aHTCaTIAh4LbBkgiAwDIOHAIBgMMhkMgOBQOqQw+HMPOTz+anDQCAgEoke31wEQTidTpIkNRpNKBQKhULQt0epVMJ9lS6XKxQKSaVSWE+XywWLTbWPx+Ph8XipQ+iAPrNBGAzGzEMEQWa2D0VRMw9jsRi8ZNggXC6XIAi4px42VzgcDoVC8JDBYITD4Wg0Ck+GLZ9MJmcePu2W+Zksw+4wGponh94dRrOioIVLk5HQwqXJSGjh0mQktHBpMhJauDQZCS1cmoyEFi5NRkILlyYjWZ5INo8BhmqLx+MURTGZTAaDMbfY4rPKhAGwHpobYp7AwLHxeBxFUQaDAeP5zb9MiqJgHM/5lwMAWMpAEEtD2gnX4XB8/vnnJ06ccDgc+/fv/9rXvpaXlzefAmFQ/y+//JLH423dunXOQXMfRX9//+9///vjx49nZ2cfOHDghRdeeFR6lSenr69vdHSUz+fX19fPxxu+t7e3t7cXALBv3755PgPpRhpdTDKZDIVCZ8+edTqdO3fuZLFYZrP59u3bOI7P00WboiiPx/Mng5bOgZGREZi34+233w6FQhaL5dKlS7t27ZpniONwOAxDTc5nJ0l3d/fRo0fHxsaeeeaZpUwrsjSkkY0Lw18ODQ1xudyXXnrpwIEDOp3ObDaPjIzMZxvRomKxWBwOh8FgeO2113bt2pVMJnt6euAOuGWsFUEQ7e3tLS0tdrt9/oZWepJGVwWFi+O4TCaTy+UsFis/Pz8QCExMTCx4IqcFgaIor9eLoqjJZGIwGAqFQigUwsxNyyvcUCjU1dUVCATWr19fU1OzjDVZPNLLVIDC5XK5cE6mUCgikYjH44nFYk8bEn4JgCmlKIqSy+UIgjCZTKlU6nQ65xDYeWFRKBRvvPEGAKC9vf327dvLWJPFI42ES5Kk3W6fW5q4pQfmloJ7t5e7Lv8fSSPhwtC2mTL5RRAEwzAOh5OeZsyKJ41UgqIojKYPp/8wSyOO4zCo8nLX7iHAtDyxWCwcDsOMIJFIhCTJuQVnpnkq0mhyhqKoUCiE2WWhQ9Lk5CSHw5HL5UuTrPBpYTAYYrEYQRA4GwuFQh6PhyRJpVK5Uufy6UMatS8UbjwedzgcNpstFAr19vaKRKLs7Oz0FC4AQCKRwHTPkUhkYmIiEAjw+fxUDgiaxSONTAUEQYRC4e7duy9cuPCDH/wgGAyuXr1627Zts3KgphWlpaUEQZw+fXrnzp0SiaS2tnbr1q0z85LSLBLpJVwcx2EIBZlMBoVbXFw8KwdqWiEUCsvKyiiK0mq1EokEZmpIn/mlXq+HuxTSc5IwH9KliVMIBILq6moYtiMjUKvVarX6+eefX+6KPASNRqPRaJa7FotCGtm4iwfMH83j8TJlBGcymVwudylzOmccadfjLjgIgggEgq997WsIgrDZ7OWuzhNRUlJSUFAAk/Qud13SlJUvXAAAiqKZtbYK9/Uudy3Smv8XpgLNyiPtetxoNDoxMQHza+r1er1eP/+t3/F4fGpqCsMwpVK5GFN+iqLC4bDVahWLxXK5fP7jO0wnj+M43L7ztF+HHh9DQ0PT09MYhqnVaoPBgGHYSrKY06vHTSaTExMTx44d+5u/+ZuDBw9++OGHw8PD89yMm0wmCYL44osvLl68CGMPLizwndnAwMAHH3xw/fr1h6Ykf1oGBwcvXbrU1tY2t2uPx+N2u/2Xv/zlm2+++Z3vfOfo0aNutztt9zTPjTQSLtyP+/vf/56iqJ/85CenT5/mcDg3b97s7+9f7qo9jkAgcOvWrR/84AcDAwPpsOGGJEmr1frLX/4yPz///fff/+d//mcMw44dO2a325e7agtJ2gmXIAipVFpeXl5cXJyfn+9wOMxmM3R1TEOmpqbOnTvX2NhYU1Mjk8nS4dUDSZLBYHB8fDwnJ6e4uLioqCgrKwuGuU6H52qhSCPhwo3kGIaJRCKhUMhgMHJycgiCsNvtadviOI6LxeKCgoLNmzfLZLJ0WL2C4Zfj8bhcLufxeHw+X6VSuVwuj8cTjUaXu3YLxvL3ECmgSyMAgMViQT9ykUgUi8WCwWA8Hl/u2j0cuVy+bdu2uro6GDx+uasDAACxWCwQCCQSCQ6Hw2AwKIqCziPhcDhtm3EOpFGPS5Lk9PT0SuoVloVYLObz+QKBwAqbjc0ijYQLl6sy5eVW2sJkMqGtlQ52y+KRRsJFUVQikUBfrkQikUwmvV4vk8kUCAT0a6Qnh8ViCQQCDMOgbZBIJOAKHYfDSdttzXMgvYQrFAphFhefzxeLxUZHR3k8nlqtXkktvtgwGAwej8dkMqenp4PBYCAQsNlsCoVCKpWyWKzlrt2CkRbzCQjcSC4Wiz0ez+3bt6VS6cjIiNFoNBgMaTLvyQgwDBMIBLm5uaOjo9CX02q1VlZWKpXKlTRwpVePC7dxoSj6zjvvvPjii+FweMOGDensAZGGYBim1+v/+q//enh4+Fvf+tb3v/99iqL2798/51R46Ul69WQIgqjV6ldeeWXbtm2xWEyj0ajV6vR3PGQymdnZ2d/61reEQmE6BC7BcVwqlb799tuvvvoqiqJKpVIkEqV/Mz4V6SVcAACTyczKysrKylruijwFKIpyOJzc3Nzlrsj/giAIg8GYZ5TLNCfthLsYwLvI4XAyxVaWSqU5OTlcLncl7edaWDLjRs4HGCAnPX3CHoXJZDKZTMtdi7RmRdk9NP9/oIVLk5Gkqang8Xi6u7uFQqHBYBCLxfMpCr6K6+rqYrFYRUVFC74IPzk52dHRcevWLalUumHDhrKysvm7bExMTLhcLjabnZeXN4fVAIqiIpHIpUuXBgcHGQzGqlWrampqmEzmSrKY01G4bre7vb392LFjNTU1YrF4nsIFAEQikVu3bsFl+YUVrtfrvXfv3sWLF/v7++FeNhRF16xZM8+l/snJycHBQZFIZDQan1a4yWQyGAzeu3evubl5ZGQEx3G32y2RSPLy8ng83nxqlVakl6mQTCbD4XBnZ+fx48dPnz5NEMRy1+hP0Nvb29XVpVarT548eeTIEb/ff/bsWb/fv4yBnWGwwI8++igvL+9f/uVfvv/97zOZTJgMZiVlgkgj4SaTyVgs9tlnn129elWv1x86dEgoFC53pf4EHo8Hx3FogWi1WoFAQBDE5OTkgmdJeXJIkgyHw8FgMDs7WyKRyOVyk8nU29trt9tX0pbRNBIujB1WW1u7d+/eZ555Jv1f9sBQ+slkUqVSIQjC4XCkUimO48vbt8Gt9xRFiUQiNpvNZrMlEkk0GvX7/bRwFwsMw/Ly8ioqKnJycpa7Ln+aWCzm8XjC4TCMlYRhGIvFQlF0QRx95wzUaCQSwXEcwzCYNhAAEI/HV9LW8vQSbgYBQ5BHo9F084cjSTIWi8Xj8ZVk0T5IOq4qZAQIgrBYLKlUiiDILIks76oTi8USi8UCgWCWobWS1sIA3ePOByaTKRaLURSFGfmi0ajb7Y5GowqFYhlVwmKx4EJyIBCAAwLMC8Tn81eSWxQt3LmDIIhEIqEoanh4OBaLORwOn8/HZrM1Gs0yChcmiuNwOJOTk36/3+v1jo2N5ebmwpyHy1WrBYc2FeZFTk7O5ORkd3f3f/7nf0YiERRFy8vL5xbwa6HAMEwqldbV1ZnNZpvNRlFUKBTaunWrSqVaSe6TadrjslgsjUYjk8nSvJPIzc1ds2aNUCj8+OOPW1paTCbT5s2blzcgM9w5vm/fPhRFL168eOPGDbVavW3bNolEslxVWgzStMfV6XSvv/46yIQpRVFR0fe+97133nkHAICiaDpUGEYDeuedd7773e8CABAESfMV8TmQpsIFmSBZCIIg6VnVlSfWmaSvcBcQDodTV1fHZDIzZVqdnZ0tFAqZTObKFt98WPnChQuu5eXly12Rp0ClUq0wp9wFh36gaTISWrg0GQktXJqMJE1tXLfb3dXVJRQKjUbj/F13IpFIynVnMeZnMN7ZrVu3srOz8/Ly5h/pzGq1ulwuFosFs5097deh686FCxcGBgYYDEZ5eXltbS2LxUrP1Y+5kY7CdblcbW1tx44d27hxo1Qqnb/rTjQavX37tkAgMBqNCy5cmCnkypUrly9fbmhoWJBc7zabDbruzMHnLJlMBgKBrq6uGzdujI6O4jju8/kkEklBQQHturNYwAw5HR0dJ06cOHv27GIkyVlYEomEw+FobW398MMPLRZLOuSqIEnSZrN98sknJpPpxz/+8fe+9z0Wi3Xq1Cm73b6SNjqmkXBTrjvXrl3LFNcdq9V68uTJ48eP/+Vf/qXBYEiHcKjQdYcgiOzsbLFYLJPJTCZTT0+Pw+FYSR4QaWQqQNedTZs2rV+/3uVyNTc3p//yu1wub2hoKC8v5/F4d+7cSQcjMhqNplx3OBwOiqJisTgWi0HXnUx5BfMnSSPhAgAwDDMajQCA+/fvL3ddngg+n19QUJCdnT02NpYmjxnUKHTdQVGUdt2hyQwoiorH4yvedYcW7koDJi8RCASz7Ja03Qw0N2jhrjRSrjvBYHCW606ab25+KmjhrjRSrjsTExM+n8/j8YyNjRmNRoVCsZKEm16TM5r5g2GYTCbbvHmz2Wy2Wq3Qi/PZZ59VKpW0686iw2KxdDpdpnQSMJQ+DHm07OJAUVShUOzZs4fBYFy/fv327dtarfbZZ5+lXXeWAp1Od+jQoeWuxZMCk5e89dZby12R/yXlurPcFVlE0rTHpaF5PGna4y4sHA5n06ZNGeS6k5OTIxKJaNedx7DyhQtdd8rKypa7Ik+BUqlUKpXLXYu0hn6gaTISWrg0GQktXJqMhBYuTUZCC5cmI6GFS5OR0MKlyUho4dJkJLRwaTISWrg0GQktXJqMhBYuTUZCC5cmI6GFS5OR0MKlyUho4dJkJLRwaTISWrg0GQktXJqMhBYuTUZCC5cmI6GFS5OR0MKlyUgWLK5Cc3NzJBJZqNJoaCDhcNjv9z/4+cII12QyNTY2NjY2LkhpNDQz4XK5AoFg1ofIggRcd7lc8y+EhuZRPBiVemGES0OzxNCTM5qMhBYuTUZCC5cmI6GFS5OR0MKlyUho4dJkJLRwaTISWrg0GQktXJqMhBYuTUZCC5cmI6GFS5OR0MKlyUj+B62uVttS/mmEAAAAAElFTkSuQmCC;" vertex="1" parent="1">
                    <mxGeometry x="390" y="430" width="232" height="203" as="geometry"/>
                </mxCell>
            </root>
        </mxGraphModel>
    </diagram>
</mxfile>